# xmcd CD database file
#
# Track frame offsets:
#	150
#	27152
#	65657
#	112997
#	136590
#	158937
#	193562
#	228957
#	269732
#
# Disc length: 3939 seconds
#
# Revision: 0
# Processed by: cddbd v1.5.1PL0 Copyright (c) Steve Scherf et al.
# Submitted via: CDex 1.60beta1
#
DISCID=760f6109
DTITLE=Various Artist - Kinda Jazzy Kinda Funky 
DYEAR=2004
DGENRE=Jazz
TTITLE0=The Governor  - Melvin Sparks Band
TTITLE1=Gf's Attitude  - DeFrancesco, Papa John
TTITLE2=Live Bait  - Rodney Jones
TTITLE3=Off the Hook  - David "Fathead" Newman
TTITLE4=The Cat  - Joey DeFrancesco
TTITLE5=The Hat Man  - Randy Johnston
TTITLE6=Peach Cobbler - Bill Heid
TTITLE7=Sweet Sucker - Houston Person
TTITLE8=Another Joe  - Melvin Sparks Band 
EXTD=YEAR: 2004
EXTT0=
EXTT1=
EXTT2=
EXTT3=
EXTT4=
EXTT5=
EXTT6=
EXTT7=
EXTT8=
PLAYORDER=
